<?xml version="1.0" encoding="UTF-8" standalone="no"?>
<!DOCTYPE svg PUBLIC "-//W3C//DTD SVG 1.1//EN" "http://www.w3.org/Graphics/SVG/1.1/DTD/svg11.dtd">
<svg width="100%" height="100%" viewBox="0 0 393 394" version="1.1" xmlns="http://www.w3.org/2000/svg" xmlns:xlink="http://www.w3.org/1999/xlink" xml:space="preserve" xmlns:serif="http://www.serif.com/" style="fill-rule:evenodd;clip-rule:evenodd;stroke-linejoin:round;stroke-miterlimit:1.41421;">
    <g transform="matrix(1,0,0,1,-345,-163)">
        <g transform="matrix(1.19835,0,0,1.19835,-160.186,-84.3659)">
            <circle cx="584.291" cy="370.814" r="159.851" style="fill:rgb(159,158,158);"/>
        </g>
        <g transform="matrix(0.562067,0,0,0.562067,236.494,157.638)">
            <g transform="matrix(1.77915,0,0,1.77915,-420.758,-280.461)">
                <g>
                    <path d="M460.821,321.233C460.704,319.845 460.645,318.444 460.645,317.033C460.645,282.474 496.141,254.416 539.862,254.416C583.583,254.416 619.079,282.474 619.079,317.033C619.079,318.444 619.02,319.845 618.903,321.233L619.079,321.233L612.949,368.495C614.595,366.155 616.382,364.894 618.075,365.144C622.341,365.772 624.41,375.74 622.694,387.39C620.979,399.04 616.123,407.989 611.857,407.36C610.982,407.231 610.198,406.708 609.521,405.858C604.445,455.086 575.17,492.89 539.862,492.89C504.623,492.89 475.394,455.235 470.233,406.147C469.614,406.827 468.914,407.247 468.143,407.36C463.877,407.989 459.021,399.04 457.306,387.39C455.59,375.74 457.659,365.772 461.925,365.144C463.503,364.911 465.163,365.991 466.715,368.034L460.645,321.233L460.821,321.233Z" style="fill:rgb(136,86,61);"/>
                </g>
            </g>
            <g transform="matrix(1.77915,0,0,1.77915,-420.758,-280.461)">
                <path d="M539.862,221.465L542.75,221.443C547.799,221.582 552.85,222.118 557.606,222.936C560.635,223.456 563.543,224.091 566.254,224.811C569.472,225.665 572.641,226.78 575.727,228.113C579.743,229.848 583.619,231.953 587.28,234.337C589.52,235.795 591.68,237.358 593.743,239.005C596.816,241.458 602.582,247.565 602.582,247.565C602.582,247.565 607.226,253.111 609.308,255.933C611.15,258.43 612.854,260.906 614.387,263.236C616.654,266.68 618.652,272.887 620.124,279.423C621.801,286.874 622.794,294.753 622.719,299.453C622.442,316.807 612.726,367.358 612.726,367.358C612.726,367.358 602.843,332.236 599.788,317.033C596.634,301.338 588.502,301.083 580.746,298.202C571.266,294.679 571.132,294.793 556.466,292.799C551.107,292.071 545.547,291.697 539.862,291.676C534.177,291.697 528.616,292.071 523.258,292.799C508.592,294.793 508.457,294.679 498.977,298.202C491.222,301.083 483.09,301.338 479.936,317.033C476.881,332.236 466.998,367.358 466.998,367.358C466.998,367.358 457.282,316.807 457.005,299.453C456.93,294.753 457.923,286.874 459.6,279.423C461.071,272.887 463.07,266.68 465.336,263.236C466.87,260.906 468.574,258.43 470.416,255.933C472.497,253.111 477.142,247.565 477.142,247.565C477.142,247.565 482.908,241.458 485.981,239.005C488.043,237.358 490.203,235.795 492.444,234.337C496.105,231.953 499.98,229.848 503.996,228.113C507.083,226.78 510.252,225.665 513.47,224.811C516.181,224.091 519.089,223.456 522.118,222.936C526.873,222.118 531.925,221.582 536.974,221.443L539.862,221.465Z" style="fill:rgb(51,51,51);"/>
            </g>
            <g transform="matrix(1,0,0,-1,-30.3426,675.142)">
                <path d="M439.905,288.424C439.905,288.424 453.205,211.573 458.64,184.526C464.251,156.603 484.985,169.026 498.782,163.899C515.649,157.633 513.906,108.52 540,104.974C551.234,103.447 559.07,141.023 570.079,141.222C584.641,141.485 584.151,102.006 600.265,105.335C623.194,110.07 632.512,154.048 641.037,163.216C648.882,171.652 672.91,162.677 677.57,181.897C683.753,207.395 698.688,295.222 698.688,295.222C698.688,295.222 696.771,223 690.497,192.609C683.833,160.332 685.221,167.861 683.965,162.886C682.678,157.791 674.201,135.327 665.912,121.673C660.589,112.905 652.311,99.925 642.604,89.467C640.281,86.964 615.292,72.679 611.992,72.248C604.58,71.277 572.177,67.469 563.716,68.924C558.328,69.85 536.783,68.766 530.083,72.705C528.455,73.662 522.214,70.948 498.508,89.862C494.192,93.306 491.031,98.67 481.938,109.321C477.175,114.901 471.246,125.714 462,138.899C454.199,150.025 452.332,161.193 449.215,173.046C441.363,202.91 439.905,288.424 439.905,288.424Z" style="fill:rgb(51,51,51);"/>
            </g>
            <g transform="matrix(1.77915,0,0,1.77915,-420.758,-280.461)">
                <path d="M539.144,415.458L539.144,415.455C540.74,415.029 542.219,413.35 543.828,413.741C547.52,414.638 554.309,419.027 558.921,422.87C563.532,426.713 571.018,434.156 571.499,436.798C571.981,439.439 566.785,436.753 564.309,435.614C560.494,433.859 552.783,428.484 548.61,426.266C545.464,424.594 545.702,423.656 543.358,423.657C542.152,423.658 540.447,425.028 539.149,425.647L539.149,425.654C537.849,425.036 536.142,423.662 534.935,423.661C532.591,423.66 532.829,424.598 529.682,426.27C525.509,428.488 517.798,433.863 513.983,435.618C511.508,436.757 506.312,439.443 506.793,436.802C507.275,434.16 514.76,426.717 519.372,422.874C523.984,419.032 530.773,414.642 534.464,413.745C536.072,413.354 537.549,415.03 539.144,415.458Z" style="fill:rgb(51,51,51);"/>
            </g>
            <g transform="matrix(1.77915,0,0,1.77915,-420.758,-280.461)">
                <path d="M540.312,361.741C546.18,361.579 550.997,358.294 556.768,356.428C562.816,354.474 569.865,354.006 575.798,353.559C576.518,353.505 577.283,353.468 578.082,353.448L580.584,353.433C592.713,353.571 610.3,356.433 610.3,356.433L610.3,364.925C610.3,364.925 608.194,364.577 607.449,367.121C606.821,369.267 606.894,373.232 606.347,376.301C605.554,380.754 604.139,384.335 603.068,386.178C600.896,389.913 597.151,392.937 593.117,394.484C588.587,396.22 581.645,397.174 575.888,396.595C569.47,395.95 560.617,394.846 554.613,390.61C548.789,386.501 545.125,372.082 540.312,371.219C535.5,372.082 531.836,386.501 526.012,390.61C520.007,394.846 511.154,395.95 504.737,396.595C498.98,397.174 492.038,396.22 487.508,394.484C483.474,392.937 479.729,389.913 477.557,386.178C476.486,384.335 475.071,380.754 474.278,376.301C473.731,373.232 473.804,369.267 473.176,367.121C472.431,364.577 470.325,364.925 470.325,364.925L470.325,356.433C470.325,356.433 487.912,353.571 500.041,353.433L502.543,353.448C503.342,353.468 504.107,353.505 504.827,353.559C510.76,354.006 517.809,354.474 523.856,356.428C529.628,358.294 534.445,361.579 540.312,361.741ZM478.431,363.208C481.784,359.212 492.61,357.71 497.809,356.744C501.689,356.023 505.755,356.662 509.629,357.412C514.381,358.331 522.932,359.21 526.321,362.259C529.71,365.309 530.375,371.344 529.964,375.709C529.553,380.073 527.614,385.61 523.856,388.449C519.739,391.56 511.679,393.889 505.257,394.377C498.834,394.864 489.914,393.65 485.319,391.373C481.405,389.434 478.727,384.963 477.689,380.72C476.541,376.026 475.077,367.204 478.431,363.208ZM602.194,363.208C598.841,359.212 588.015,357.71 582.816,356.744C578.936,356.023 574.87,356.662 570.996,357.412C566.244,358.331 557.693,359.21 554.304,362.259C550.915,365.309 550.25,371.344 550.661,375.709C551.072,380.073 553.011,385.61 556.768,388.449C560.886,391.56 568.945,393.889 575.368,394.377C581.791,394.864 590.711,393.65 595.305,391.373C599.22,389.434 601.898,384.963 602.936,380.72C604.084,376.026 605.548,367.204 602.194,363.208Z" style="fill:rgb(51,51,51);"/>
            </g>
        </g>
    </g>
</svg>
