<?xml version="1.0" encoding="UTF-8" standalone="no"?>
<!DOCTYPE svg PUBLIC "-//W3C//DTD SVG 1.1//EN" "http://www.w3.org/Graphics/SVG/1.1/DTD/svg11.dtd">
<svg width="100%" height="100%" viewBox="0 0 393 394" version="1.1" xmlns="http://www.w3.org/2000/svg" xmlns:xlink="http://www.w3.org/1999/xlink" xml:space="preserve" xmlns:serif="http://www.serif.com/" style="fill-rule:evenodd;clip-rule:evenodd;stroke-linejoin:round;stroke-miterlimit:1.41421;">
    <g transform="matrix(1,0,0,1,-345,-163)">
        <g transform="matrix(1.19835,0,0,1.19835,-160.186,-84.3659)">
            <circle cx="584.291" cy="370.814" r="159.851" style="fill:rgb(204,203,203);"/>
        </g>
        <g transform="matrix(0.562067,0,0,0.562067,236.494,157.638)">
            <g>
                <g>
                    <g>
                        <g>
                            <g transform="matrix(0.989327,-0.145715,0.145715,0.989327,-66.5827,150.919)">
                                <ellipse cx="430.862" cy="322.04" rx="13.897" ry="37.96" style="fill:rgb(136,86,61);"/>
                            </g>
                            <g transform="matrix(0.989327,0.145715,0.145715,-0.989327,200.17,662.558)">
                                <ellipse cx="430.862" cy="322.04" rx="13.897" ry="37.96" style="fill:rgb(136,86,61);"/>
                            </g>
                            <g transform="matrix(1.14855,0,0,0.858156,-137.666,161.396)">
                                <ellipse cx="589.788" cy="294.93" rx="109.111" ry="212.049" style="fill:rgb(136,86,61);"/>
                            </g>
                            <g transform="matrix(1.12817,0,0,1.04137,-111.527,20.1002)">
                                <ellipse cx="577.275" cy="253.02" rx="124.927" ry="106.98" style="fill:rgb(136,86,61);"/>
                            </g>
                            <g transform="matrix(-1.19712,-1.46605e-16,1.27779e-16,-1.04339,1222.19,695.957)">
                                <path d="M687.811,388.059L452.348,388.059L471.602,217.729L668.556,217.729L687.811,388.059Z" style="fill:rgb(136,86,61);"/>
                            </g>
                        </g>
                        <g transform="matrix(1,0,0,1,-29.804,84.6985)">
                            <path d="M570.343,28.866L570.343,153.773C559.949,153.778 549.785,154.444 540,155.774C513.906,159.32 513.668,159.119 496.801,165.385C483.003,170.512 468.535,170.966 462.924,198.889C457.488,225.937 439.905,288.424 439.905,288.424C439.905,288.424 422.619,198.486 422.126,167.612C421.993,159.25 423.759,145.233 426.743,131.976C429.361,120.347 432.916,109.303 436.949,103.176C439.677,99.031 442.709,94.626 445.986,90.183C449.689,85.163 457.953,75.295 457.953,75.295C457.953,75.295 468.211,64.43 473.678,60.065C477.348,57.136 481.191,54.355 485.177,51.76C491.69,47.519 498.586,43.774 505.731,40.688C511.222,38.315 516.86,36.332 522.585,34.812C527.409,33.532 532.583,32.402 537.971,31.476C546.432,30.021 555.42,29.068 564.402,28.82L570.343,28.866Z" style="fill:rgb(51,51,51);"/>
                        </g>
                        <g transform="matrix(-1,0,0,1,1109.28,84.6985)">
                            <path d="M570.343,28.866L570.343,153.773C559.949,153.778 549.785,154.444 540,155.774C513.906,159.32 513.668,159.119 496.801,165.385C483.003,170.512 468.535,170.966 462.924,198.889C457.488,225.937 439.905,288.424 439.905,288.424C439.905,288.424 422.619,198.486 422.126,167.612C421.993,159.25 423.759,145.233 426.743,131.976C429.361,120.347 432.916,109.303 436.949,103.176C439.677,99.031 442.709,94.626 445.986,90.183C449.689,85.163 457.953,75.295 457.953,75.295C457.953,75.295 468.211,64.43 473.678,60.065C477.348,57.136 481.191,54.355 485.177,51.76C491.69,47.519 498.586,43.774 505.731,40.688C511.222,38.315 516.86,36.332 522.585,34.812C527.409,33.532 532.583,32.402 537.971,31.476C546.432,30.021 555.42,29.068 564.402,28.82L570.343,28.866Z" style="fill:rgb(51,51,51);"/>
                        </g>
                        <g transform="matrix(1,0,0,-1,-30.3426,675.142)">
                            <path d="M439.905,288.424C439.905,288.424 453.205,211.573 458.64,184.526C464.251,156.603 484.985,169.026 498.782,163.899C515.649,157.633 513.906,108.52 540,104.974C551.234,103.447 559.07,141.023 570.079,141.222C584.641,141.485 584.151,102.006 600.265,105.335C623.194,110.07 632.512,154.048 641.037,163.216C648.882,171.652 672.91,162.677 677.57,181.897C683.753,207.395 698.688,295.222 698.688,295.222C698.688,295.222 696.771,223 690.497,192.609C683.833,160.332 685.221,167.861 683.965,162.886C682.678,157.791 674.201,135.327 665.912,121.673C660.589,112.905 652.311,99.925 642.604,89.467C640.281,86.964 615.292,72.679 611.992,72.248C604.58,71.277 572.177,67.469 563.716,68.924C558.328,69.85 536.783,68.766 530.083,72.705C528.455,73.662 522.214,70.948 498.508,89.862C494.192,93.306 491.031,98.67 481.938,109.321C477.175,114.901 471.246,125.714 462,138.899C454.199,150.025 452.332,161.193 449.215,173.046C441.363,202.91 439.905,288.424 439.905,288.424Z" style="fill:rgb(51,51,51);"/>
                        </g>
                        <g>
                            <g transform="matrix(1,0,0,1,-30.8373,84.6912)">
                                <path d="M569.297,374.004C572.137,373.246 574.768,370.258 577.631,370.954C584.199,372.55 596.277,380.36 604.482,387.197C612.688,394.033 626.005,407.276 626.862,411.975C627.719,416.675 618.474,411.895 614.07,409.869C607.283,406.746 593.563,397.184 586.138,393.238C580.541,390.263 580.964,388.595 576.794,388.597C574.646,388.598 571.608,391.042 569.297,392.142L569.297,374.004Z" style="fill:rgb(51,51,51);"/>
                            </g>
                            <g transform="matrix(-1,0,0,1,1107.76,84.6985)">
                                <path d="M569.297,374.004C572.137,373.246 574.768,370.258 577.631,370.954C584.199,372.55 596.277,380.36 604.482,387.197C612.688,394.033 626.005,407.276 626.862,411.975C627.719,416.675 618.474,411.895 614.07,409.869C607.283,406.746 593.563,397.184 586.138,393.238C580.541,390.263 580.964,388.595 576.794,388.597C574.646,388.598 571.608,391.042 569.297,392.142L569.297,374.004Z" style="fill:rgb(51,51,51);"/>
                            </g>
                        </g>
                        <g transform="matrix(1,0,0,1,-28.739,84.6985)">
                            <path d="M502.081,263.677C503.502,263.713 504.863,263.777 506.144,263.874C516.7,264.67 529.241,265.502 540,268.979C550.53,272.383 559.274,278.443 570.079,278.443L570.079,295.222C561.115,295.222 554.517,322.257 543.835,329.793C533.152,337.33 517.401,339.293 505.984,340.442C495.742,341.472 483.391,339.774 475.331,336.685C468.153,333.934 461.49,328.553 457.627,321.908C455.721,318.629 453.203,312.259 451.792,304.336C450.82,298.875 450.949,291.822 449.831,288.003C448.506,283.477 444.759,284.096 444.759,284.096L444.759,268.988C444.759,268.988 476.049,263.895 497.628,263.65L502.081,263.677ZM459.18,281.042C465.147,273.933 484.407,271.259 493.658,269.541C500.561,268.258 507.794,269.395 514.687,270.729C523.142,272.364 538.355,273.928 544.385,279.353C550.415,284.779 551.597,295.516 550.866,303.282C550.135,311.047 546.685,320.897 540,325.948C532.674,331.484 518.335,335.628 506.908,336.495C495.481,337.363 479.611,335.201 471.437,331.152C464.473,327.702 459.707,319.747 457.861,312.198C455.818,303.846 453.214,288.152 459.18,281.042Z" style="fill:rgb(51,51,51);"/>
                        </g>
                        <g transform="matrix(-1,0,0,1,1109.82,84.6985)">
                            <path d="M502.081,263.677C503.502,263.713 504.863,263.777 506.144,263.874C516.7,264.67 529.241,265.502 540,268.979C550.53,272.383 559.274,278.443 570.079,278.443L570.079,295.222C561.115,295.222 554.517,322.257 543.835,329.793C533.152,337.33 517.401,339.293 505.984,340.442C495.742,341.472 483.391,339.774 475.331,336.685C468.153,333.934 461.49,328.553 457.627,321.908C455.721,318.629 453.203,312.259 451.792,304.336C450.82,298.875 450.949,291.822 449.831,288.003C448.506,283.477 444.759,284.096 444.759,284.096L444.759,268.988C444.759,268.988 476.049,263.895 497.628,263.65L502.081,263.677ZM459.18,281.042C465.147,273.933 484.407,271.259 493.658,269.541C500.561,268.258 507.794,269.395 514.687,270.729C523.142,272.364 538.355,273.928 544.385,279.353C550.415,284.779 551.597,295.516 550.866,303.282C550.135,311.047 546.685,320.897 540,325.948C532.674,331.484 518.335,335.628 506.908,336.495C495.481,337.363 479.611,335.201 471.437,331.152C464.473,327.702 459.707,319.747 457.861,312.198C455.818,303.846 453.214,288.152 459.18,281.042Z" style="fill:rgb(51,51,51);"/>
                        </g>
                    </g>
                </g>
            </g>
        </g>
    </g>
</svg>
