<?xml version="1.0" encoding="UTF-8" standalone="no"?><!DOCTYPE svg PUBLIC "-//W3C//DTD SVG 1.1//EN" "http://www.w3.org/Graphics/SVG/1.1/DTD/svg11.dtd"><svg width="100%" height="100%" viewBox="0 0 393 394" version="1.1" xmlns="http://www.w3.org/2000/svg" xmlns:xlink="http://www.w3.org/1999/xlink" xml:space="preserve" xmlns:serif="http://www.serif.com/" style="fill-rule:evenodd;clip-rule:evenodd;stroke-linejoin:round;stroke-miterlimit:2;"><g><circle cx="194.999" cy="196.999" r="191.557" style="fill:#9f9e9e;"/><g><path d="M115.822,158.234c-0.117,-1.388 -0.176,-2.789 -0.176,-4.2c0,-34.559 35.496,-62.617 79.217,-62.617c43.721,0 79.217,28.058 79.217,62.617c0,1.411 -0.059,2.812 -0.176,4.2l0.176,0l-6.13,47.262c1.646,-2.34 3.433,-3.601 5.126,-3.351c4.266,0.628 6.335,10.596 4.619,22.246c-1.715,11.65 -6.571,20.599 -10.837,19.97c-0.875,-0.129 -1.659,-0.652 -2.336,-1.502c-5.076,49.228 -34.351,87.032 -69.659,87.032c-35.239,0 -64.468,-37.655 -69.629,-86.743c-0.619,0.68 -1.319,1.1 -2.09,1.213c-4.266,0.629 -9.122,-8.32 -10.837,-19.97c-1.717,-11.65 0.353,-21.618 4.619,-22.246c1.578,-0.233 3.238,0.847 4.79,2.89l-6.07,-46.801l0.176,0Z" style="fill:#88563d;"/><path d="M194.863,58.465l2.888,-0.022c5.049,0.139 10.1,0.675 14.856,1.493c3.029,0.52 5.937,1.155 8.648,1.875c3.218,0.854 6.387,1.969 9.473,3.302c4.016,1.735 7.892,3.84 11.553,6.224c2.24,1.458 4.4,3.021 6.463,4.668c3.073,2.453 8.839,8.56 8.839,8.56c0,0 4.644,5.547 6.726,8.369c1.842,2.497 3.546,4.973 5.079,7.303c2.267,3.444 4.265,9.651 5.737,16.187c1.677,7.451 2.67,15.33 2.595,20.03c-0.277,17.354 -9.993,67.905 -9.993,67.905c0,0 -9.883,-35.122 -12.938,-50.325c-3.154,-15.695 -11.286,-15.95 -19.042,-18.831c-9.48,-3.523 -9.614,-3.409 -24.28,-5.403c-5.359,-0.728 -10.919,-1.102 -16.604,-1.123c-5.685,0.021 -11.246,0.395 -16.604,1.123c-14.666,1.994 -14.801,1.88 -24.281,5.403c-7.755,2.881 -15.887,3.136 -19.041,18.831c-3.055,15.203 -12.938,50.325 -12.938,50.325c0,0 -9.716,-50.551 -9.993,-67.905c-0.075,-4.7 0.918,-12.579 2.595,-20.03c1.471,-6.536 3.47,-12.743 5.736,-16.187c1.534,-2.33 3.238,-4.806 5.08,-7.303c2.081,-2.822 6.726,-8.369 6.726,-8.369c0,0 5.766,-6.107 8.839,-8.56c2.062,-1.647 4.222,-3.21 6.463,-4.668c3.661,-2.384 7.536,-4.489 11.552,-6.224c3.087,-1.333 6.256,-2.448 9.474,-3.302c2.711,-0.72 5.619,-1.355 8.648,-1.875c4.755,-0.818 9.807,-1.354 14.856,-1.493l2.888,0.022Z" style="fill:#333;"/><path d="M195.313,198.742c5.868,-0.162 10.685,-3.447 16.456,-5.313c6.048,-1.954 13.097,-2.422 19.03,-2.869c0.72,-0.054 1.485,-0.091 2.284,-0.111l2.502,-0.015c12.129,0.138 29.716,3 29.716,3l0,8.492c0,0 -2.106,-0.348 -2.851,2.196c-0.628,2.146 -0.555,6.111 -1.102,9.18c-0.793,4.453 -2.208,8.034 -3.279,9.877c-2.172,3.735 -5.917,6.759 -9.951,8.306c-4.53,1.736 -11.472,2.69 -17.229,2.111c-6.418,-0.645 -15.271,-1.749 -21.275,-5.985c-5.824,-4.109 -9.488,-18.528 -14.301,-19.391c-4.812,0.863 -8.476,15.282 -14.3,19.391c-6.005,4.236 -14.858,5.34 -21.275,5.985c-5.757,0.579 -12.699,-0.375 -17.229,-2.111c-4.034,-1.547 -7.779,-4.571 -9.951,-8.306c-1.071,-1.843 -2.486,-5.424 -3.279,-9.877c-0.547,-3.069 -0.474,-7.034 -1.102,-9.18c-0.745,-2.544 -2.851,-2.196 -2.851,-2.196l0,-8.492c0,0 17.587,-2.862 29.716,-3l2.502,0.015c0.799,0.02 1.564,0.057 2.284,0.111c5.933,0.447 12.982,0.915 19.029,2.869c5.772,1.866 10.589,5.151 16.456,5.313Zm-61.881,1.467c3.353,-3.996 14.179,-5.498 19.378,-6.464c3.88,-0.721 7.946,-0.082 11.82,0.668c4.752,0.919 13.303,1.798 16.692,4.847c3.389,3.05 4.054,9.085 3.643,13.45c-0.411,4.364 -2.35,9.901 -6.108,12.74c-4.117,3.111 -12.177,5.44 -18.599,5.928c-6.423,0.487 -15.343,-0.727 -19.938,-3.004c-3.914,-1.939 -6.592,-6.41 -7.63,-10.653c-1.148,-4.694 -2.612,-13.516 0.742,-17.512Zm123.763,0c-3.353,-3.996 -14.179,-5.498 -19.378,-6.464c-3.88,-0.721 -7.946,-0.082 -11.82,0.668c-4.752,0.919 -13.303,1.798 -16.692,4.847c-3.389,3.05 -4.054,9.085 -3.643,13.45c0.411,4.364 2.35,9.901 6.107,12.74c4.118,3.111 12.177,5.44 18.6,5.928c6.423,0.487 15.343,-0.727 19.937,-3.004c3.915,-1.939 6.593,-6.41 7.631,-10.653c1.148,-4.694 2.612,-13.516 -0.742,-17.512Z" style="fill:#333;"/></g></g></svg>